<?xml version="1.0" standalone="no"?>
<!DOCTYPE svg PUBLIC "-//W3C//DTD SVG 20010904//EN"
 "http://www.w3.org/TR/2001/REC-SVG-20010904/DTD/svg10.dtd">
<svg version="1.0" xmlns="http://www.w3.org/2000/svg"
 width="512.000000pt" height="512.000000pt" viewBox="0 0 512.000000 512.000000"
 preserveAspectRatio="xMidYMid meet">

<g transform="translate(0.000000,512.000000) scale(0.100000,-0.100000)"
fill="#000000" stroke="none">
<path d="M3385 3794 c-324 -185 -716 -408 -870 -495 l-280 -159 441 0 442 0
263 152 c145 83 388 222 539 308 150 86 276 162 277 167 6 16 -192 358 -208
360 -8 1 -279 -149 -604 -333z"/>
<path d="M2252 4055 c-35 -8 -83 -25 -106 -39 -59 -35 -133 -117 -164 -184
-23 -49 -27 -70 -27 -152 0 -84 3 -102 29 -157 16 -35 30 -63 32 -63 4 0 656
370 663 377 8 6 -24 56 -67 104 -48 54 -121 93 -208 114 -71 17 -72 17 -152 0z"/>
<path d="M808 3300 c-76 -82 -138 -151 -138 -154 0 -4 177 -6 394 -6 l394 0
263 151 c145 83 266 152 268 155 2 2 -232 4 -520 4 l-524 -1 -137 -149z"/>
<path d="M40 2714 l0 -76 91 4 c81 3 93 6 110 27 27 34 24 75 -7 100 -22 17
-41 21 -110 21 l-84 0 0 -76z"/>
<path d="M445 2765 c-28 -27 -30 -42 -14 -79 19 -41 52 -48 234 -44 161 3 167
4 186 27 27 34 24 75 -7 100 -25 19 -40 21 -201 21 -171 0 -174 0 -198 -25z"/>
<path d="M1067 2779 c-28 -16 -40 -58 -26 -91 17 -42 60 -50 240 -46 138 3
160 5 178 22 31 28 28 79 -5 105 -25 19 -40 21 -198 21 -101 0 -178 -5 -189
-11z"/>
<path d="M1672 2773 c-34 -29 -37 -66 -9 -99 l25 -29 180 0 c163 0 182 2 201
19 28 26 28 79 -1 106 -20 19 -34 20 -199 20 -154 0 -179 -2 -197 -17z"/>
<path d="M2279 2772 c-30 -25 -30 -75 0 -105 21 -21 30 -22 200 -22 162 0 181
2 200 19 28 26 28 79 -1 106 -20 19 -34 20 -199 20 -157 0 -179 -2 -200 -18z"/>
<path d="M2897 2778 c-26 -21 -37 -61 -23 -89 21 -42 50 -49 216 -49 166 0
195 7 216 49 15 29 1 77 -26 91 -28 15 -362 13 -383 -2z"/>
<path d="M3502 2770 c-29 -27 -29 -80 -1 -106 19 -17 40 -19 188 -22 181 -3
206 3 229 51 11 22 10 31 -2 55 -8 16 -23 32 -31 36 -9 3 -94 6 -189 6 -160 0
-174 -2 -194 -20z"/>
<path d="M4112 2767 c-28 -30 -29 -78 -1 -103 19 -17 41 -19 195 -22 l174 -3
31 31 c25 24 30 36 25 58 -14 57 -31 62 -225 62 -173 0 -178 -1 -199 -23z"/>
<path d="M4726 2769 c-33 -26 -36 -77 -5 -105 17 -15 40 -20 110 -22 l89 -4 0
76 0 76 -84 0 c-69 0 -88 -4 -110 -21z"/>
<path d="M3945 2018 c-70 -25 -114 -67 -151 -143 -23 -49 -24 -56 -24 -301 0
-286 6 -316 72 -384 79 -82 58 -80 628 -80 486 0 506 1 538 20 18 11 41 34 52
52 19 31 20 51 20 388 0 337 -1 357 -20 388 -11 18 -34 41 -52 52 -32 19 -51
20 -533 19 -326 0 -510 -4 -530 -11z m454 -288 c116 -66 121 -239 9 -316 -35
-24 -51 -29 -103 -29 -50 0 -69 5 -103 28 -84 55 -108 171 -53 258 25 40 49
58 111 83 26 10 101 -3 139 -24z"/>
<path d="M48 494 c-5 -4 -8 -38 -8 -76 l0 -68 88 0 c80 0 91 2 110 23 27 28
28 67 4 98 -16 19 -30 23 -103 27 -46 2 -87 1 -91 -4z"/>
<path d="M483 492 c-27 -4 -63 -47 -63 -74 0 -10 11 -30 25 -43 24 -25 26 -25
203 -25 166 0 180 1 200 20 27 25 29 70 5 98 -16 18 -33 20 -183 24 -91 2
-175 2 -187 0z"/>
<path d="M1051 464 c-27 -35 -26 -59 4 -89 24 -25 26 -25 205 -25 167 0 181 1
200 20 24 24 26 67 4 98 -15 21 -20 22 -204 22 l-189 0 -20 -26z"/>
<path d="M1660 463 c-25 -32 -20 -69 12 -95 18 -16 43 -18 199 -18 166 0 180
1 199 20 26 26 26 81 2 103 -16 15 -46 17 -205 17 l-186 0 -21 -27z"/>
<path d="M2275 470 c-26 -29 -24 -79 4 -102 21 -16 43 -18 202 -18 166 0 180
1 199 20 26 26 26 81 2 103 -16 15 -45 17 -204 17 -173 0 -186 -1 -203 -20z"/>
<path d="M2885 470 c-25 -27 -22 -80 6 -102 18 -16 44 -18 200 -18 166 0 180
1 199 20 29 29 30 72 3 103 -14 15 -38 17 -203 17 -174 0 -188 -1 -205 -20z"/>
<path d="M3497 472 c-23 -25 -21 -78 3 -102 19 -19 33 -20 199 -20 159 0 181
2 202 18 28 23 30 73 4 102 -17 19 -30 20 -205 20 -168 0 -189 -2 -203 -18z"/>
<path d="M4107 472 c-23 -25 -21 -78 3 -102 19 -19 33 -20 199 -20 156 0 181
2 199 18 32 26 37 63 12 95 l-21 27 -188 0 c-169 0 -190 -2 -204 -18z"/>
<path d="M4717 472 c-23 -25 -21 -78 3 -102 17 -17 33 -20 110 -20 l90 0 0 70
0 70 -93 0 c-78 0 -97 -3 -110 -18z"/>
</g>
</svg>
